<svg xmlns="http://www.w3.org/2000/svg" width="98" height="47" viewBox="0 0 98 47" fill="none">
<path d="M95.9469 3.58227C95.9045 3.04991 95.7517 2.53191 95.4979 2.06056C95.2441 1.58922 94.8949 1.17465 94.4719 0.84273C94.0489 0.510811 93.5612 0.268663 93.0394 0.131391C92.5176 -0.00588103 91.9727 -0.0353294 91.4389 0.0448836C82.9031 1.392 62.8915 9.20331 49 9.20331C35.1085 9.20331 15.0969 1.392 6.5611 0.0448836C6.02753 -0.0360654 5.4828 -0.00729702 4.96098 0.12939C4.43916 0.266077 3.95147 0.507743 3.52838 0.839283C3.10528 1.17082 2.7559 1.58511 2.50206 2.05624C2.24822 2.52737 2.09538 3.04522 2.0531 3.57742C1.3573 11.0011 0 30.7668 0 33.7615C0 37.7834 17.0128 47 29.4 47C41.4148 47 43.855 33.7615 49 33.7615C54.145 33.7615 56.5852 47 68.6 47C80.9872 47 98 37.7834 98 33.7615C98 30.7668 96.6427 11.0011 95.9469 3.58227ZM37.534 27.2294C35.8043 28.7704 30.9925 32.4144 25.1321 31.2756C19.2717 30.1369 15.729 24.8647 14.5187 22.7568C14.3754 22.5139 14.3188 22.2304 14.3579 21.9519C14.397 21.6733 14.5295 21.4159 14.7343 21.2207C16.464 19.6798 21.2758 16.0358 27.1411 17.1745C33.0015 18.3133 36.5442 23.5854 37.7545 25.6933C37.8963 25.937 37.9517 26.2206 37.9117 26.4989C37.8717 26.7773 37.7388 27.0344 37.534 27.2294ZM83.4813 22.7568C82.2759 24.8696 78.7332 30.1369 72.8679 31.2756C67.0075 32.4144 62.1908 28.7704 60.466 27.2294C60.2612 27.0344 60.1282 26.7773 60.0883 26.4989C60.0483 26.2206 60.1037 25.937 60.2455 25.6933C61.4509 23.5806 64.9936 18.3133 70.8589 17.1745C76.7193 16.0358 81.536 19.6798 83.2608 21.2207C83.4671 21.4148 83.6011 21.6721 83.6411 21.9509C83.6812 22.2296 83.6248 22.5136 83.4813 22.7568Z" fill="#D8FF00"/>
</svg>