<svg xmlns="http://www.w3.org/2000/svg" width="108" height="102" viewBox="0 0 108 102" fill="none">
<path d="M100.179 84.982V34.7887C100.179 33.3006 98.9735 32.0947 97.4853 32.0947H82.2557V20.552C82.2557 19.0638 81.0498 17.8579 79.5616 17.8579H67.951V14.0712C67.951 6.31233 61.6398 0 53.8816 0C46.1235 0 39.8122 6.31233 39.8122 14.0712V17.8579H28.202C27.8482 17.8579 27.4978 17.9275 27.171 18.0629C26.8441 18.1983 26.5471 18.3967 26.2969 18.6469C26.0467 18.8971 25.8483 19.1941 25.7129 19.521C25.5775 19.8478 25.5079 20.1982 25.5079 20.552V32.0947H10.278C9.56346 32.0947 8.87822 32.3785 8.37299 32.8838C7.86775 33.389 7.58392 34.0742 7.58392 34.7887V84.982C3.39019 85.0571 0 88.4865 0 92.6982V94.0186C0 98.277 3.46454 101.742 7.72293 101.742H100.04C104.299 101.742 107.763 98.277 107.763 94.0186V92.6982C107.763 88.4865 104.373 85.0571 100.179 84.982ZM28.202 74.9203H79.5613C81.0495 74.9203 82.2553 73.7145 82.2553 72.2263V46.6828H86.3542V84.4264H21.4094V46.6824H25.5079V72.2259C25.5079 72.5797 25.5775 72.9301 25.7129 73.257C25.8483 73.5839 26.0467 73.8809 26.2969 74.1311C26.547 74.3813 26.8441 74.5798 27.1709 74.7152C27.4978 74.8506 27.8482 74.9203 28.202 74.9203ZM94.7912 37.4828V84.4264H91.7427V43.9884C91.7427 42.5002 90.5368 41.2943 89.0486 41.2943H82.2557V37.4828H94.7912ZM45.2003 14.0712C45.2003 9.28332 49.0948 5.38809 53.8816 5.38809C58.6684 5.38809 62.5629 9.28332 62.5629 14.0712V17.8579H45.2003V14.0712ZM30.896 23.246H39.8122V27.8593C39.8122 29.3475 41.0181 30.5534 42.5063 30.5534C43.9945 30.5534 45.2003 29.3475 45.2003 27.8593V23.246H62.5629V27.8593C62.5629 29.3475 63.7688 30.5534 65.257 30.5534C66.7452 30.5534 67.951 29.3475 67.951 27.8593V23.246H76.8672V69.5319H30.896V23.246ZM12.972 37.4828H25.5079V41.2943H18.7154C18.3616 41.2943 18.0112 41.3639 17.6843 41.4993C17.3575 41.6347 17.0604 41.8331 16.8103 42.0833C16.5601 42.3335 16.3617 42.6305 16.2263 42.9574C16.0909 43.2842 16.0213 43.6346 16.0213 43.9884V84.426H12.9724L12.972 37.4828ZM102.375 94.0186C102.375 95.306 101.328 96.3534 100.04 96.3534H7.72293C7.10393 96.3527 6.51049 96.1064 6.07279 95.6687C5.63509 95.231 5.38885 94.6376 5.38809 94.0186V92.6982C5.38809 91.4108 6.43554 90.3633 7.72293 90.3633H100.04C101.328 90.3633 102.375 91.4108 102.375 92.6982V94.0186Z" fill="#D8FF00"/>
<path d="M61.7421 52.1635L44.2646 45.1547L51.2544 62.676L52.9585 57.3766L60.0043 64.4376L63.4983 60.9342L56.4543 53.8722L61.7421 52.1635Z" fill="#D8FF00"/>
</svg>