<svg xmlns="http://www.w3.org/2000/svg" width="130" height="134" viewBox="0 0 130 134" fill="none">
<path d="M77.4194 80.2105C84.5456 72.8273 84.5456 60.8569 77.4194 53.4737C70.2931 46.0905 58.7392 46.0905 51.6129 53.4737C44.4867 60.8569 44.4867 72.8273 51.6129 80.2105C58.7392 87.5937 70.2931 87.5937 77.4194 80.2105Z" stroke="#D8FF00" stroke-width="8" stroke-linecap="round" stroke-linejoin="round"/>
<path d="M96.7742 100.263C114.59 81.8052 114.59 51.879 96.7742 33.421C78.9585 14.9631 50.0737 14.9631 32.2581 33.421C14.4424 51.879 14.4424 81.8052 32.2581 100.263C50.0737 118.721 78.9585 118.721 96.7742 100.263Z" stroke="#D8FF00" stroke-width="8" stroke-linecap="round" stroke-linejoin="round"/>
<path d="M32.6284 33.5087L50.9077 52.4469M78.3266 52.4469L96.6058 33.5087M78.3266 80.8543L96.6058 99.7926M50.9077 80.8543L32.6284 99.7926" stroke="#D8FF00" stroke-width="8" stroke-linecap="round" stroke-linejoin="round"/>
</svg>