<svg xmlns="http://www.w3.org/2000/svg" width="112" height="116" viewBox="0 0 112 116" fill="none">
<g clip-path="url(#clip0_50_32)">
<path d="M54.8804 8.34385C57.1053 8.34747 58.912 6.47992 58.9138 4.17736C58.9155 1.87141 57.1141 0.00181382 54.8894 1.31946e-06C52.6645 -0.00181118 50.8596 1.86393 50.8578 4.16807C50.8543 6.47244 52.6555 8.34181 54.8804 8.34385ZM56.9502 22.4881C56.952 21.1335 55.8928 20.0327 54.5849 20.0327C53.2772 20.0327 52.2143 21.1297 52.2123 22.4843C52.2106 23.8409 53.2715 24.9398 54.5814 24.9398C55.8893 24.9416 56.9502 23.8443 56.9502 22.4881ZM57.4007 13.6946C57.3989 15.3161 58.667 16.6295 60.2326 16.6331C61.7962 16.6331 63.0643 15.3236 63.0663 13.7002C63.068 12.0808 61.8017 10.7672 60.2381 10.7672C58.6725 10.7635 57.4024 12.0751 57.4007 13.6946ZM94.9261 99.3051L72.2479 61.7904C70.1841 58.375 69.0898 54.4271 69.09 50.3979L69.1187 26.0218H65.1052L65.0781 50.3252V50.3979C65.0789 55.2064 66.3855 59.9177 68.8485 63.9937L91.5265 101.51C92.1764 102.584 92.521 103.826 92.521 105.093C92.521 106.22 92.2488 107.347 91.7031 108.369C91.1385 109.423 90.3122 110.301 89.3097 110.912C88.3072 111.524 87.165 111.846 86.0016 111.847H85.9655L25.9906 111.78C24.8259 111.778 23.6828 111.454 22.6801 110.841C21.6774 110.227 20.8517 109.347 20.2888 108.291C19.757 107.29 19.4782 106.167 19.4784 105.025C19.4774 103.754 19.824 102.509 20.4781 101.434L43.2338 63.9638C45.712 59.8857 47.0289 55.166 47.033 50.3474L47.0584 26.0216H43.0522L43.0233 50.3438C43.0183 54.3816 41.9151 58.3362 39.8401 61.7546L17.0846 99.223C16.0274 100.96 15.4672 102.972 15.4689 105.026C15.4674 106.868 15.9179 108.681 16.7783 110.294C17.6866 112.001 19.0199 113.424 20.6395 114.416C22.2592 115.407 24.1058 115.931 25.9873 115.933L85.9893 116L85.9911 113.923V116C86.0847 116 86.1317 115.995 86.1354 115.995V115.989C89.9093 115.94 93.3754 113.806 95.2109 110.382C96.0767 108.764 96.531 106.943 96.5313 105.093C96.5306 103.046 95.9744 101.04 94.9261 99.3051Z" fill="#D8FF00"/>
<path d="M42.2199 75.3898L26.5674 101.156C26.2428 101.693 26.0625 102.309 26.0451 102.942C26.0276 103.575 26.1738 104.202 26.4683 104.757C27.0699 105.887 28.2174 106.649 29.4659 106.652H82.5359C83.7806 106.652 84.9282 105.951 85.5297 104.824C85.8268 104.27 85.975 103.643 85.9588 103.01C85.9426 102.376 85.7627 101.758 85.4379 101.221L69.843 75.4199C69.5356 74.91 69.1079 74.4896 68.6002 74.1984C68.0924 73.9071 67.5214 73.7548 66.941 73.7556L45.1168 73.7313C44.5375 73.7294 43.9673 73.8807 43.4604 74.1709C42.9534 74.4612 42.5264 74.8807 42.2199 75.3898ZM62.9057 93.2975C64.2893 93.2975 65.4115 94.458 65.4115 95.8928C65.4115 97.3274 64.2893 98.4881 62.9057 98.4881C62.5766 98.4883 62.2507 98.4213 61.9465 98.291C61.6424 98.1606 61.3661 97.9695 61.1334 97.7284C60.9006 97.4874 60.7161 97.2012 60.5902 96.8862C60.4644 96.5713 60.3997 96.2337 60.4 95.8928C60.3997 95.5519 60.4644 95.2143 60.5902 94.8993C60.7161 94.5844 60.9006 94.2982 61.1334 94.0571C61.3661 93.8161 61.6424 93.6249 61.9465 93.4946C62.2507 93.3642 62.5766 93.2973 62.9057 93.2975ZM50.8758 82.1345C52.9511 82.1345 54.6352 83.8773 54.6352 86.0285C54.6352 88.1779 52.9509 89.9204 50.8758 89.9204C48.7988 89.9204 47.1161 88.1776 47.1161 86.0285C47.1161 83.877 48.7988 82.1345 50.8758 82.1345Z" fill="#D8FF00"/>
</g>
<defs>
<clipPath id="clip0_50_32">
<rect width="112" height="116" fill="white"/>
</clipPath>
</defs>
</svg>